<svg width="70" height="70" viewBox="0 0 70 70" fill="none" xmlns="http://www.w3.org/2000/svg">
<path d="M60.4582 24.9318L45.0705 9.54179L44.5287 9H25.4736L24.9318 9.54179L9.54179 24.9318L9 25.4736V44.5264L9.54179 45.0682L24.9318 60.4582L25.4736 61H44.5264L45.0682 60.4582L60.4582 45.0682L61 44.5264V25.4736L60.4582 24.9318ZM26.2423 10.8523H34.1815V22.1997H35.8185V10.8523H43.7577C46.0592 13.1537 45.5151 12.6096 47.8003 14.8948V22.1997H48.9001L51.91 25.2096C48.349 25.2096 43.8596 25.2096 40.3033 25.2096V22.1997H44.7881V16.1405L42.5098 13.8622H38.8261V31.1716H43.429V34.1815H35.8162V25.2073C33.7995 25.2073 28.4372 25.2073 26.7192 25.2073V22.1974H31.167V13.8622H27.4833C25.0036 16.3419 23.0587 18.2868 20.6762 20.6693H16.4206C17.5968 19.4931 25.168 11.9219 26.2376 10.8523H26.2423ZM20.6693 53.5771C19.4931 52.4009 11.9219 44.8297 10.8523 43.7601V35.8208H22.1997V34.1838H10.8523V26.2423C13.1514 23.9408 12.6096 24.4849 14.8948 22.1997H22.1997V21.0999L25.2096 18.09V29.6967H22.1997V25.2119H16.1405L13.8622 27.4902V31.1739H31.1716V26.571H34.1815V34.1838H25.2096V43.2808H22.1997V38.833H13.8622V42.5167C16.3419 44.9964 18.2868 46.9413 20.6693 49.3238V53.5794V53.5771ZM43.7601 59.1501H35.8208V47.8026H34.1838V59.1501H26.2446C23.9431 56.8509 24.4872 57.3927 22.202 55.1075V47.8026H21.1022L18.0923 44.7927C21.6533 44.7927 26.1427 44.7927 29.6991 44.7927V47.8026H25.2143V53.8595L27.4925 56.1401H31.1762V38.8307H26.5734V35.8208H34.1862V44.795C36.2028 44.795 41.5651 44.795 43.2831 44.795V47.8049H38.8353V56.1424H42.519C44.9988 53.6627 46.9436 51.7178 49.3261 49.3354H53.5817C52.4055 50.5116 44.8344 58.0827 43.7647 59.1524L43.7601 59.1501ZM59.1501 34.1838H47.8026V35.8208H59.1501V43.7601C56.8509 46.0615 57.3927 45.5174 55.1075 47.8026H47.8026V48.9024L44.7927 51.9123V40.3056H47.8026V44.7904H53.8595L56.1378 42.5098V38.8261H38.8284V43.429H35.8185V35.8162H44.7904V26.7192H47.8003V31.167H56.1378V27.4833C53.6581 25.0036 51.7132 23.0587 49.3307 20.6762V16.4206C50.5069 17.5968 58.0781 25.168 59.1477 26.2376V34.1792L59.1501 34.1838Z" fill="#E78D24"/>
</svg>
