<svg xmlns="http://www.w3.org/2000/svg" width="42" height="42" viewBox="0 0 42 42" fill="none">
    <rect x="0.5" y="0.5" width="41" height="41" stroke="white" stroke-opacity="0.24"/>
    <path d="M15.6093 10.5028C16.4229 10.7784 17.1968 11.1594 17.9114 11.636C18.9206 11.3781 19.9583 11.2485 21 11.2503C22.0757 11.2503 23.1136 11.3847 24.0864 11.6349C24.8007 11.1588 25.5743 10.7782 26.3874 10.5028C27.1425 10.2461 28.2182 9.83008 28.8574 10.5375C29.2907 11.0185 29.3991 11.8245 29.476 12.4398C29.5627 13.1267 29.5832 14.0215 29.3557 14.9098C30.2257 16.0332 30.75 17.3733 30.75 18.8337C30.75 21.0458 29.5518 22.9666 27.7784 24.2969C26.9249 24.9291 25.9784 25.4247 24.9726 25.7659C25.2044 26.2967 25.3333 26.8839 25.3333 27.5003V30.7503C25.3333 31.0376 25.2192 31.3132 25.016 31.5164C24.8129 31.7195 24.5373 31.8337 24.25 31.8337H17.75C17.4627 31.8337 17.1871 31.7195 16.984 31.5164C16.7808 31.3132 16.6667 31.0376 16.6667 30.7503V29.6767C15.6321 29.8035 14.7643 29.6908 14.0266 29.3777C13.2552 29.0506 12.7179 28.5436 12.3138 28.0582C11.9303 27.5989 11.5122 26.5632 10.9077 26.3617C10.7727 26.3168 10.6478 26.2457 10.5403 26.1525C10.4328 26.0593 10.3446 25.9458 10.281 25.8186C10.1524 25.5616 10.1311 25.264 10.2219 24.9913C10.3127 24.7187 10.5081 24.4932 10.7651 24.3646C11.0221 24.236 11.3197 24.2148 11.5923 24.3056C12.3138 24.5461 12.784 25.0661 13.1057 25.4842C13.6257 26.1559 14.0482 27.0334 14.8716 27.3833C15.2107 27.5274 15.7079 27.6217 16.4857 27.5155L16.6667 27.4787C16.6687 26.8891 16.7915 26.3062 17.0274 25.7659C16.0216 25.4247 15.075 24.9291 14.2216 24.2969C12.4482 22.9666 11.25 21.0469 11.25 18.8337C11.25 17.3755 11.7732 16.0365 12.641 14.9142C12.4135 14.0258 12.433 13.1288 12.5197 12.4409L12.5251 12.3997C12.6042 11.7692 12.6962 11.0272 13.1382 10.5375C13.7774 9.83008 14.8542 10.2472 15.6082 10.5039L15.6093 10.5028Z" fill="white"/>
</svg>