<svg width="38" height="54" viewBox="0 0 38 54" fill="none" xmlns="http://www.w3.org/2000/svg">
<g id="Group 11891">
<g id="Satoshi">
<path id="Vector" d="M34.7876 53.8723V45.1319H36.5V53.8723H34.7876ZM34.7876 43.7418V42.1279H36.5V43.7418H34.7876Z" fill="#E78D24"/>
<path id="Vector_2" d="M29.0999 53.8723V42.1279H30.8122V45.7311C30.9592 45.5873 31.1768 45.4302 31.465 45.2598C31.7532 45.0893 32.0273 45.0041 32.2873 45.0041C32.5698 45.0041 32.8072 45.0813 32.9993 45.2358C33.1915 45.3902 33.3356 45.598 33.4317 45.859C33.5277 46.1146 33.5758 46.3996 33.5758 46.7138V53.8723H31.8634V47.0494C31.8634 46.8896 31.8238 46.7617 31.7447 46.6659C31.6713 46.5647 31.5837 46.5141 31.4819 46.5141C31.3633 46.5141 31.222 46.578 31.0581 46.7058C30.8942 46.8283 30.8122 46.9668 30.8122 47.1213V53.8723H29.0999Z" fill="#E78D24"/>
<path id="Vector_3" d="M25.7009 53.9999C25.2997 53.9999 24.9493 53.936 24.6498 53.8082C24.3502 53.6803 24.1016 53.4992 23.9038 53.2649C23.706 53.0252 23.5562 52.7429 23.4545 52.418C23.3584 52.0931 23.3104 51.7309 23.3104 51.3315H24.9041C24.9041 51.6883 24.9634 51.9999 25.0821 52.2662C25.2064 52.5272 25.4127 52.6577 25.7009 52.6577C25.9496 52.6577 26.1106 52.5592 26.1841 52.3621C26.2576 52.165 26.2943 51.9387 26.2943 51.683C26.2943 51.3847 26.17 51.0811 25.9213 50.7722C25.6783 50.458 25.424 50.1783 25.1584 49.9333C24.7006 49.5072 24.3191 49.0865 24.014 48.671C23.7144 48.2556 23.5647 47.7682 23.5647 47.209C23.5647 46.5485 23.7484 46.0159 24.1157 45.6111C24.483 45.2063 25.0058 45.0039 25.684 45.0039C26.0909 45.0039 26.4328 45.0545 26.7097 45.1557C26.9923 45.2569 27.2183 45.4087 27.3879 45.6111C27.5574 45.8135 27.6789 46.0612 27.7524 46.3541C27.8315 46.647 27.871 46.9853 27.871 47.3688H26.2774C26.2774 47.0918 26.2463 46.8521 26.1841 46.6497C26.1219 46.4473 25.9665 46.3461 25.7179 46.3461C25.5144 46.3461 25.3703 46.4287 25.2855 46.5938C25.2008 46.7536 25.1584 46.9586 25.1584 47.209C25.1584 47.5019 25.2318 47.7629 25.3788 47.9919C25.5314 48.2156 25.7829 48.4899 26.1332 48.8148C26.5741 49.2196 26.9753 49.651 27.337 50.1091C27.7043 50.5672 27.888 51.0652 27.888 51.6031C27.888 51.9546 27.8371 52.2769 27.7354 52.5698C27.6393 52.8628 27.4952 53.1157 27.3031 53.3288C27.1166 53.5418 26.8877 53.707 26.6164 53.8241C26.3508 53.9413 26.0456 53.9999 25.7009 53.9999Z" fill="#E78D24"/>
<path id="Vector_4" d="M19.903 53.9839C19.2191 53.9839 18.6823 53.7682 18.2923 53.3368C17.9024 52.9 17.7074 52.3488 17.7074 51.683V47.3048C17.7074 46.6391 17.9024 46.0905 18.2923 45.659C18.6823 45.2223 19.2191 45.0039 19.903 45.0039C20.5811 45.0039 21.1152 45.2223 21.5051 45.659C21.9007 46.0905 22.0985 46.6391 22.0985 47.3048V51.683C22.0985 52.3488 21.9007 52.9 21.5051 53.3368C21.1152 53.7682 20.5811 53.9839 19.903 53.9839ZM19.903 52.5778C20.1234 52.5778 20.276 52.4952 20.3607 52.3301C20.4455 52.1597 20.4879 51.944 20.4879 51.683V47.3048C20.4879 47.0385 20.4455 46.8228 20.3607 46.6577C20.276 46.4926 20.1234 46.41 19.903 46.41C19.6826 46.41 19.53 46.4926 19.4452 46.6577C19.3604 46.8228 19.318 47.0385 19.318 47.3048V51.683C19.318 51.9493 19.3604 52.165 19.4452 52.3301C19.53 52.4952 19.6826 52.5778 19.903 52.5778Z" fill="#E78D24"/>
<path id="Vector_5" d="M15.5715 53.9999C15.0347 53.9999 14.6249 53.888 14.3424 53.6643C14.0598 53.4406 13.8648 53.1211 13.7574 52.7056C13.6557 52.2902 13.6049 51.7948 13.6049 51.2196V46.5858H12.7402V45.1317H13.6049V42.9746H15.3172V45.1317H16.4955V46.5858H15.3172V51.4513C15.3172 51.7922 15.3709 52.0452 15.4783 52.2103C15.5857 52.3701 15.7609 52.45 16.0039 52.45C16.1112 52.45 16.2045 52.442 16.2836 52.426C16.3684 52.41 16.4362 52.3914 16.4871 52.3701V53.8481C16.374 53.8907 16.2497 53.9253 16.1141 53.952C15.9841 53.9839 15.8032 53.9999 15.5715 53.9999Z" fill="#E78D24"/>
<path id="Vector_6" d="M8.29008 53.9999C7.89448 53.9999 7.55258 53.8108 7.26435 53.4327C6.97613 53.0545 6.83202 52.4766 6.83202 51.699C6.83202 50.948 7.00156 50.3434 7.34065 49.8854C7.68538 49.4273 8.19966 49.0305 8.88348 48.695C9.09823 48.5885 9.27908 48.4926 9.42601 48.4074C9.57295 48.3221 9.66337 48.2423 9.69728 48.1677V47.209C9.69728 46.9906 9.66902 46.8042 9.61251 46.6497C9.56165 46.4899 9.43166 46.41 9.22256 46.41C9.03041 46.41 8.90043 46.4952 8.83262 46.6657C8.7648 46.8308 8.73089 47.0385 8.73089 47.2889V47.7043H7.01852V47.3368C7.01852 46.8574 7.11742 46.4447 7.31522 46.0984C7.51867 45.7469 7.79276 45.4779 8.13749 45.2915C8.48788 45.0998 8.88348 45.0039 9.32429 45.0039C9.74814 45.0039 10.1155 45.0971 10.4263 45.2835C10.7371 45.4646 10.9773 45.7176 11.1469 46.0425C11.3221 46.3621 11.4097 46.7296 11.4097 47.145V52.3541C11.4097 52.7429 11.421 53.0465 11.4436 53.2649C11.4662 53.4779 11.4944 53.6803 11.5283 53.8721H9.84987C9.7764 53.7869 9.73119 53.6617 9.71423 53.4966C9.70293 53.3315 9.69728 53.2223 9.69728 53.169H9.5786C9.43731 53.414 9.25647 53.6138 9.03607 53.7682C8.82131 53.9227 8.57265 53.9999 8.29008 53.9999ZM8.9852 52.418C9.183 52.418 9.34972 52.3541 9.48535 52.2263C9.62664 52.0984 9.69728 51.96 9.69728 51.8108V49.7336C9.28473 49.8987 8.98238 50.149 8.79023 50.4846C8.60373 50.8148 8.51049 51.1877 8.51049 51.6031C8.51049 51.7842 8.54722 51.9653 8.62069 52.1464C8.69416 52.3275 8.81566 52.418 8.9852 52.418Z" fill="#E78D24"/>
<path id="Vector_7" d="M3.07703 54C2.57406 54 2.15586 53.9228 1.82243 53.7683C1.48899 53.6085 1.2262 53.3795 1.03406 53.0812C0.841909 52.7829 0.70345 52.4234 0.618679 52.0027C0.53956 51.5819 0.5 51.1078 0.5 50.5806L2.29714 50.4208C2.29714 50.6764 2.30562 50.9241 2.32257 51.1638C2.34518 51.3981 2.38191 51.6112 2.43278 51.8029C2.48929 51.9893 2.56841 52.1385 2.67013 52.2503C2.77751 52.3622 2.91314 52.4181 3.07703 52.4181C3.3483 52.4181 3.54045 52.3009 3.65348 52.0666C3.76651 51.8269 3.82302 51.5393 3.82302 51.2037C3.82302 50.8682 3.72977 50.5193 3.54327 50.1571C3.35678 49.7949 3.13355 49.4514 2.87358 49.1265C2.43278 48.5726 2.04566 48.0586 1.71222 47.5845C1.38444 47.1105 1.1273 46.6445 0.940809 46.1864C0.759964 45.7284 0.669542 45.249 0.669542 44.7483C0.669542 44.3542 0.72323 43.992 0.830606 43.6618C0.937983 43.3262 1.0934 43.036 1.29685 42.7909C1.50595 42.5406 1.75743 42.3462 2.05131 42.2077C2.34518 42.0692 2.68144 42 3.06008 42C3.52915 42 3.92474 42.0746 4.24687 42.2237C4.57465 42.3728 4.83744 42.5859 5.03524 42.8628C5.23869 43.1398 5.38563 43.47 5.47605 43.8535C5.57212 44.2317 5.62016 44.6525 5.62016 45.1158L3.82302 45.2756C3.82302 45.0786 3.81172 44.8815 3.78911 44.6844C3.77216 44.482 3.73825 44.2983 3.68739 44.1332C3.63652 43.968 3.56305 43.8349 3.46698 43.7337C3.37091 43.6325 3.24658 43.5819 3.09399 43.5819C2.85663 43.5819 2.69274 43.6778 2.60232 43.8695C2.5119 44.0559 2.46668 44.3222 2.46668 44.6684C2.46668 45.1158 2.59384 45.5473 2.84815 45.9627C3.10247 46.3782 3.44438 46.8628 3.87388 47.4168C4.38816 48.0719 4.80636 48.6738 5.12849 49.2224C5.45627 49.771 5.62016 50.3782 5.62016 51.0439C5.62016 51.4647 5.57212 51.8562 5.47605 52.2184C5.37998 52.5752 5.22739 52.8868 5.01829 53.1531C4.81484 53.4194 4.55205 53.6272 4.22992 53.7763C3.91344 53.9254 3.52915 54 3.07703 54Z" fill="#E78D24"/>
</g>
<path id="Vector_8" d="M37.1249 11.0297L26.4719 0.375083L26.0968 0H12.9048L12.5297 0.375083L1.8751 11.0297L1.50002 11.4048V24.5952L1.8751 24.9703L12.5297 35.6249L12.9048 36H26.0952L26.4703 35.6249L37.1249 24.9703L37.5 24.5952V11.4048L37.1249 11.0297ZM13.437 1.28234H18.9334V9.13825H20.0666V1.28234H25.5631C27.1564 2.87564 26.7797 2.49895 28.3618 4.08104V9.13825H29.1232L31.2069 11.222C28.7417 11.222 25.6336 11.222 23.1715 11.222V9.13825H26.2764V4.94341L24.6991 3.36613H22.1488V15.3496H25.3354V17.4334H20.065V11.2204C18.6689 11.2204 14.9565 11.2204 13.7672 11.2204V9.13665H16.8464V3.36613H14.2961C12.5794 5.08286 11.233 6.42932 9.58355 8.07872H6.63738C7.45166 7.26444 12.6932 2.02289 13.4338 1.28234H13.437ZM9.57874 30.861C8.76445 30.0468 3.5229 24.8052 2.78235 24.0647V18.5682H10.6383V17.435H2.78235V11.937C4.37405 10.3436 3.99897 10.7203 5.58105 9.13825H10.6383V8.37686L12.7221 6.29307V14.3285H10.6383V11.2237H6.44342L4.86615 12.8009V15.3512H16.8496V12.1646H18.9334V17.435H12.7221V23.7328H10.6383V20.6536H4.86615V23.2039C6.58288 24.9206 7.92933 26.2671 9.57874 27.9165V30.8626V30.861ZM25.5647 34.7193H20.0683V26.8633H18.935V34.7193H13.4386C11.8453 33.1276 12.222 33.5027 10.6399 31.9206V26.8633H9.87848L7.79469 24.7796C10.26 24.7796 13.368 24.7796 15.8301 24.7796V26.8633H12.7253V31.0566L14.3025 32.6355H16.8528V20.652H13.6662V18.5682H18.9366V24.7812C20.3327 24.7812 24.0451 24.7812 25.2345 24.7812V26.865H22.1553V32.6371H24.7055C26.4222 30.9203 27.7687 29.5739 29.4181 27.9245H32.3643C31.55 28.7388 26.3084 33.9803 25.5679 34.7209L25.5647 34.7193ZM36.2193 17.435H28.3634V18.5682H36.2193V24.0647C34.6276 25.658 35.0027 25.2813 33.4206 26.8633H28.3634V27.6247L26.2796 29.7085V21.6731H28.3634V24.778H32.5566L34.1339 23.1991V20.6488H22.1504V23.8354H20.0666V18.565H26.278V12.2672H28.3618V15.3464H34.1339V12.7961C32.4172 11.0794 31.0707 9.73294 29.4213 8.08353V5.13736C30.2356 5.95164 35.4771 11.1932 36.2177 11.9337V17.4318L36.2193 17.435Z" fill="#E78D24"/>
</g>
</svg>
