<svg class="w-full h-full"
    xmlns="http://www.w3.org/2000/svg" width="24" height="24" viewBox="0 0 24 24" fill="none">
    <path d="M18.375 13.125C18.375 13.4217 18.287 13.7117 18.1222 13.9584C17.9574 14.205 17.7231 14.3973 17.449 14.5108C17.175 14.6244 16.8734 14.6541 16.5824 14.5962C16.2914 14.5383 16.0241 14.3954 15.8144 14.1857C15.6046 13.9759 15.4617 13.7086 15.4038 13.4176C15.346 13.1267 15.3757 12.8251 15.4892 12.551C15.6027 12.2769 15.795 12.0426 16.0417 11.8778C16.2883 11.713 16.5783 11.625 16.875 11.625C17.2728 11.625 17.6544 11.783 17.9357 12.0643C18.217 12.3456 18.375 12.7272 18.375 13.125ZM22.125 10.125V17.625C22.125 18.4206 21.8089 19.1837 21.2463 19.7463C20.6837 20.3089 19.9207 20.625 19.125 20.625H5.62502C4.82937 20.625 4.06631 20.3089 3.5037 19.7463C2.94109 19.1837 2.62502 18.4206 2.62502 17.625V6.46125C2.61348 6.06009 2.68255 5.66069 2.82814 5.2867C2.97373 4.9127 3.19288 4.57173 3.47261 4.28395C3.75235 3.99618 4.08698 3.76745 4.45669 3.61132C4.82641 3.45519 5.22369 3.37483 5.62502 3.375H18C18.2984 3.375 18.5845 3.49353 18.7955 3.7045C19.0065 3.91548 19.125 4.20163 19.125 4.5C19.125 4.79837 19.0065 5.08452 18.7955 5.2955C18.5845 5.50647 18.2984 5.625 18 5.625H5.62502C5.52444 5.62495 5.42488 5.64512 5.33226 5.68433C5.23964 5.72354 5.15585 5.78097 5.08588 5.85322C5.01591 5.92546 4.96118 6.01105 4.92496 6.10487C4.88873 6.1987 4.87175 6.29885 4.87502 6.39938V6.40688C4.89077 6.60546 4.98191 6.79048 5.12973 6.92401C5.27755 7.05754 5.47087 7.12946 5.67002 7.125H19.125C19.9207 7.125 20.6837 7.44107 21.2463 8.00368C21.8089 8.56629 22.125 9.32935 22.125 10.125ZM19.875 10.125C19.875 9.92609 19.796 9.73532 19.6553 9.59467C19.5147 9.45402 19.3239 9.375 19.125 9.375H5.67002C5.4018 9.37511 5.13465 9.34109 4.87502 9.27375V17.625C4.87502 17.8239 4.95404 18.0147 5.09469 18.1553C5.23534 18.296 5.42611 18.375 5.62502 18.375H19.125C19.3239 18.375 19.5147 18.296 19.6553 18.1553C19.796 18.0147 19.875 17.8239 19.875 17.625V10.125Z" fill="#110F16"></path>
</svg>