<svg width="116" height="16" viewBox="0 0 116 16" fill="none" xmlns="http://www.w3.org/2000/svg">
<path d="M27.8123 7.42317C28.0006 7.50203 28.0688 7.53518 28.1392 7.55918C29.3396 7.97978 30.1645 8.74668 30.3193 10.0428C30.4811 11.3971 30.0917 12.5732 28.9803 13.4464C28.0711 14.1608 26.9967 14.4762 25.8621 14.5013C23.8034 14.5471 21.7435 14.5139 19.6847 14.5368C19.1475 14.5425 19.2307 14.2019 19.2319 13.8853C19.2388 10.4188 19.248 6.95343 19.2527 3.48691C19.2527 2.8583 19.2423 2.22969 19.2319 1.60107C19.2272 1.34049 19.2815 1.15419 19.6062 1.1599C21.9145 1.19533 24.2239 1.18162 26.5288 1.28448C27.1919 1.3142 27.8816 1.59422 28.4882 1.89824C29.5707 2.44113 30.0166 3.40462 29.9854 4.59099C29.9542 5.78535 29.4205 6.66426 28.316 7.18201C28.182 7.24487 28.0491 7.31116 27.8135 7.42431L27.8123 7.42317ZM22.2021 12.5481C23.5331 12.4989 24.8166 12.5024 26.0886 12.3846C26.7517 12.3229 27.1468 11.8166 27.3121 11.164C27.6898 9.66446 26.9112 8.62325 25.3469 8.5821C24.4238 8.5581 23.4996 8.5741 22.5753 8.57867C22.4482 8.57867 22.3211 8.61868 22.2033 8.63925V12.5492L22.2021 12.5481ZM22.2229 3.20689V6.5294C23.3286 6.5294 24.4226 6.56369 25.5121 6.51911C26.486 6.47911 27.0313 5.87564 27.0498 4.93844C27.0694 3.94637 26.5149 3.26976 25.519 3.21947C24.4457 3.16461 23.3678 3.20689 22.2229 3.20689Z" fill="#A9A29D"/>
<path d="M104.099 4.69583V5.68789C104.126 5.72675 104.153 5.76561 104.181 5.80333C104.936 4.84555 105.917 4.42495 107.094 4.46953C108.316 4.51639 109.232 5.03642 109.784 6.25479C109.951 6.0342 110.07 5.87762 110.189 5.7199C111.088 4.53353 112.311 4.27752 113.692 4.57125C114.991 4.8467 115.6 5.76904 115.838 6.98169C115.914 7.37258 115.968 7.77489 115.972 8.17149C115.993 10.1328 115.994 12.0952 116 14.0564C116 14.1845 115.979 14.3136 115.96 14.5205C115.079 14.5205 114.219 14.5353 113.361 14.4999C113.261 14.4953 113.099 14.2119 113.093 14.053C113.068 13.3878 113.097 12.7204 113.1 12.054C113.105 10.8345 113.115 9.61615 113.103 8.39664C113.1 8.07662 113.068 7.74403 112.974 7.44001C112.688 6.52338 111.696 6.2685 111.017 6.95769C110.731 7.248 110.489 7.63088 110.37 8.01605C110.208 8.53608 110.122 9.09612 110.113 9.6413C110.087 11.0882 110.105 12.5363 110.136 13.9833C110.146 14.4142 110 14.5559 109.574 14.5353C108.959 14.5068 108.341 14.5079 107.726 14.5353C107.31 14.5536 107.202 14.3868 107.206 13.9993C107.231 12.1706 107.238 10.3419 107.235 8.51437C107.235 8.15663 107.213 7.78289 107.111 7.44344C106.834 6.52566 105.859 6.28336 105.148 6.93598C104.675 7.36915 104.446 7.93718 104.347 8.54865C104.274 8.99783 104.24 9.45728 104.239 9.91217C104.235 11.2643 104.244 12.6175 104.277 13.9684C104.286 14.3856 104.162 14.5548 103.722 14.5353C103.088 14.5056 102.451 14.5136 101.817 14.533C101.452 14.5445 101.305 14.429 101.309 14.0462C101.329 11.094 101.338 8.14177 101.338 5.18958C101.338 4.82384 101.455 4.6764 101.837 4.68783C102.564 4.7084 103.292 4.69354 104.099 4.69354V4.69583Z" fill="#A9A29D"/>
<path d="M66.4213 14.5308C66.4028 14.2885 66.3809 14.1399 66.3809 13.9914C66.3913 11.0963 66.4051 8.20127 66.419 5.30622C66.4225 4.70389 66.4248 4.70047 67.0244 4.69704C67.5627 4.69361 68.1034 4.71532 68.6406 4.69018C69.0554 4.67075 69.268 4.78619 69.194 5.23421C69.1698 5.38051 69.1906 5.53366 69.1906 5.77825C69.3592 5.65253 69.4725 5.57824 69.5753 5.48909C70.4984 4.69132 71.5809 4.37473 72.7859 4.4936C74.5292 4.66618 75.6811 5.90054 75.7862 7.77495C75.8555 9.00932 75.8174 10.2505 75.8301 11.4883C75.8393 12.3455 75.844 13.2027 75.8682 14.0599C75.8775 14.396 75.7631 14.5457 75.4049 14.5354C74.751 14.5183 74.0948 14.5114 73.4421 14.5377C73.0227 14.5548 72.9187 14.3765 72.9257 13.9959C72.9534 12.2244 72.9626 10.454 72.973 8.68244C72.9742 8.41728 72.9673 8.14641 72.9199 7.88582C72.7119 6.73603 71.6248 6.23428 70.5954 6.80918C70.0074 7.1372 69.6573 7.66295 69.5025 8.29156C69.3893 8.74987 69.3246 9.2299 69.32 9.70079C69.3049 11.1295 69.3142 12.5581 69.3454 13.9856C69.3546 14.4177 69.2067 14.5525 68.7816 14.5377C68.0145 14.5114 67.2462 14.5297 66.4201 14.5297L66.4213 14.5308Z" fill="#A9A29D"/>
<path d="M90.4238 9.50978C90.4562 9.22176 90.4747 8.80116 90.5521 8.39199C90.9772 6.13241 92.4629 4.73346 94.7678 4.50602C95.4852 4.43516 96.2408 4.46602 96.9455 4.60774C98.7489 4.96891 99.9054 6.07641 100.391 7.83881C100.684 8.90517 100.699 9.98524 100.459 11.0642C100.001 13.1237 98.6369 14.4381 96.5238 14.6907C95.6805 14.7913 94.7816 14.749 93.9498 14.573C91.9581 14.1524 90.693 12.5786 90.477 10.4401C90.4504 10.175 90.4458 9.90752 90.4238 9.51092V9.50978ZM97.73 9.6435C97.5983 8.97831 97.5232 8.25255 97.3037 7.57251C97.0379 6.74731 96.3967 6.369 95.5372 6.36786C94.6753 6.36557 94.0284 6.73588 93.7338 7.53822C93.2324 8.90745 93.2231 10.3075 93.7141 11.6825C94.0064 12.5008 94.6592 12.8769 95.5649 12.8677C96.4672 12.8586 97.0946 12.4643 97.3545 11.6128C97.5405 11.0002 97.6006 10.3498 97.73 9.6435Z" fill="#A9A29D"/>
<path d="M51.8293 9.65074C51.8743 9.23471 51.8951 8.81525 51.9691 8.40494C52.3804 6.12136 53.9435 4.69727 56.2864 4.48354C56.7439 4.44125 57.2118 4.4424 57.6693 4.48469C60.2249 4.72699 61.8123 6.36481 62.0029 9.0027C62.0503 9.65988 62.0064 10.3411 61.8862 10.9903C61.513 13.0041 60.1694 14.3573 58.128 14.6499C57.2338 14.7779 56.2703 14.7505 55.3853 14.5699C53.3658 14.1585 52.1031 12.5709 51.8894 10.3959C51.8651 10.1502 51.8628 9.90219 51.8501 9.65417C51.8431 9.65303 51.8351 9.65188 51.8281 9.65074H51.8293ZM59.11 9.78103C59.0407 9.15699 59.0003 8.68268 58.9298 8.21293C58.8963 7.98892 58.8235 7.76719 58.7368 7.55689C58.4053 6.75341 57.8114 6.36481 56.9496 6.36481C56.0866 6.36481 55.4431 6.74312 55.1519 7.54432C54.6621 8.89412 54.6494 10.2771 55.1184 11.6349C55.4142 12.4898 56.0716 12.8784 56.997 12.8635C57.9212 12.8498 58.5439 12.4384 58.7992 11.5469C58.976 10.9308 59.0268 10.2794 59.1112 9.77989L59.11 9.78103Z" fill="#A9A29D"/>
<path d="M51.107 8.18359C50.259 8.18359 49.4757 8.2076 48.6971 8.16074C48.5665 8.15274 48.4117 7.85214 48.3401 7.66013C47.9692 6.66007 47.179 6.20289 46.1704 6.43377C45.4934 6.5892 45.0382 7.01209 44.8256 7.64985C44.3912 8.95393 44.3866 10.2797 44.8152 11.5815C45.1156 12.4959 45.8666 12.9313 46.8336 12.8605C47.6584 12.7999 48.2453 12.305 48.4129 11.3724C48.5122 10.8226 48.7675 10.7072 49.2655 10.7415C49.8593 10.7826 50.4577 10.7598 51.0539 10.7678C51.0874 10.7678 51.1209 10.7975 51.2306 10.8501C51.196 11.0958 51.1856 11.3747 51.1163 11.6398C50.6784 13.3108 49.2909 14.5109 47.4193 14.7029C46.6302 14.784 45.7926 14.7349 45.0186 14.5623C43.3873 14.1977 42.3233 13.1428 41.8322 11.5621C41.4314 10.2729 41.4371 8.96307 41.8438 7.67613C42.3048 6.21661 43.2752 5.20968 44.7563 4.7388C46.0595 4.32506 47.3754 4.31363 48.6647 4.80051C49.9032 5.26912 50.6842 6.15946 51.0054 7.43383C51.0597 7.64756 51.0654 7.87386 51.1047 8.18359H51.107Z" fill="#A9A29D"/>
<path d="M89.819 10.7503C89.745 12.0292 89.2771 13.0087 88.3564 13.7219C86.6962 15.0065 84.8292 15.0751 82.9461 14.3516C81.19 13.6773 80.3836 12.2429 80.1826 10.4497C80.0532 9.2976 80.1514 8.1661 80.6505 7.09517C81.1311 6.06539 81.8901 5.30762 82.9553 4.8836C84.3683 4.32127 85.8089 4.27213 87.2392 4.8013C88.5008 5.26876 89.2887 6.18082 89.5972 7.48377C89.6434 7.68035 89.6503 7.88722 89.6873 8.18553C88.8439 8.18553 88.0618 8.20953 87.2842 8.16267C87.1514 8.15467 86.9931 7.85865 86.9215 7.66778C86.546 6.662 85.7662 6.20483 84.7576 6.43341C84.0806 6.58656 83.6219 7.00488 83.4082 7.64263C82.9657 8.96501 82.9542 10.308 83.4128 11.6246C83.7213 12.5104 84.4526 12.9253 85.4011 12.8635C86.2214 12.8098 86.8221 12.3047 86.9919 11.3846C87.0901 10.8531 87.3177 10.7034 87.833 10.74C88.4603 10.7834 89.0934 10.7503 89.8178 10.7503H89.819Z" fill="#A9A29D"/>
<path d="M41.142 12.5351C41.142 13.0952 41.1721 13.5706 41.1247 14.0381C41.1097 14.1912 40.9087 14.4278 40.7642 14.4496C40.0491 14.5604 39.312 14.7296 38.605 14.661C36.8639 14.493 35.9293 13.4106 35.9131 11.6791C35.9004 10.2698 35.9177 8.86175 35.9212 7.45252C35.9212 7.24565 35.9212 7.03992 35.9212 6.76904C35.6185 6.75419 35.3586 6.7199 35.0998 6.73247C34.7451 6.74962 34.6169 6.59761 34.633 6.2593C34.6492 5.89813 34.6538 5.53468 34.633 5.17465C34.6088 4.78949 34.7867 4.66491 35.1483 4.69348C35.3748 4.71177 35.6035 4.69691 35.9131 4.69691C35.9131 4.04658 35.912 3.44426 35.9131 2.84193C35.9154 2.24532 35.9166 2.24303 36.5277 2.23732C37.028 2.23275 37.5282 2.23503 38.0285 2.23732C38.543 2.23808 38.7991 2.48534 38.7968 2.97908C38.7945 3.52655 38.7968 4.07287 38.7968 4.69805C39.4449 4.69805 40.0352 4.7152 40.6245 4.69234C41.0138 4.67634 41.164 4.79749 41.1732 5.20551C41.2056 6.73019 41.2183 6.73019 39.6887 6.73019C39.4229 6.73019 39.1561 6.73019 38.8314 6.73019C38.8141 6.95763 38.7875 7.13936 38.7887 7.32108C38.7898 8.69146 38.7921 10.063 38.8037 11.4334C38.8118 12.4368 39.178 12.7603 40.1993 12.6711C40.4823 12.646 40.7642 12.5923 41.1443 12.5374L41.142 12.5351Z" fill="#A9A29D"/>
<path d="M10.8696 0.0110383C12.4477 0.0064666 14.0247 -0.00267644 15.6029 0.000752356C16.1528 0.00189529 16.2833 0.129903 16.2856 0.681939C16.2926 2.20547 16.2833 3.72785 16.2799 5.25138C16.0165 5.2891 15.7542 5.35768 15.4908 5.35996C14.1668 5.37139 12.8417 5.36225 11.5177 5.36682C10.9112 5.3691 10.8615 5.41825 10.8603 6.01829C10.8569 7.55668 10.8603 9.09506 10.8626 10.6334C9.04997 10.6323 7.23845 10.63 5.42578 10.6277L5.4304 10.6323C5.4304 8.87905 5.4304 7.12579 5.43156 5.37253C5.69497 5.3371 5.95838 5.27195 6.22179 5.26967C7.52497 5.25938 8.82815 5.26738 10.1313 5.26396C10.8164 5.26167 10.8511 5.22852 10.8546 4.56219C10.8615 3.04552 10.8638 1.52771 10.8684 0.0110383H10.8696ZM8.10724 10.1717C8.10724 10.1797 8.10724 10.1877 8.10724 10.1957C8.76114 10.1957 9.4162 10.1888 10.0701 10.198C10.6385 10.206 10.7379 10.126 10.7413 9.54424C10.7483 8.55331 10.7448 7.56353 10.7425 6.57261C10.7402 5.88685 10.6431 5.74513 9.96382 5.73027C8.69414 5.7017 7.4233 5.71998 6.15247 5.71884C5.71923 5.71884 5.53669 5.93714 5.54131 6.3646C5.55286 7.43095 5.55633 8.49845 5.539 9.56481C5.53207 10.0003 5.68919 10.1923 6.14323 10.1774C6.79713 10.1557 7.45218 10.1717 8.10724 10.1717Z" fill="#A9A29D"/>
<path d="M16.2896 10.057C16.2896 11.7714 16.2942 13.4858 16.2896 15.1991C16.2873 15.854 16.1556 15.9968 15.5282 15.9991C13.9697 16.0037 12.4101 15.9934 10.8516 15.9888C10.8573 14.2036 10.862 12.4195 10.8677 10.6342C12.3847 10.6331 13.9016 10.6148 15.4185 10.6422C15.8898 10.6502 16.1914 10.5325 16.2907 10.057H16.2896Z" fill="#A9A29D" fill-opacity="0.56"/>
<path d="M10.8644 10.6353C10.8587 12.4206 10.854 14.2047 10.8483 15.9899C9.03789 15.9876 7.22638 15.9865 5.41602 15.9842C5.41948 14.199 5.4241 12.4137 5.42757 10.6284C7.24024 10.6307 9.05176 10.633 10.8644 10.6353Z" fill="#A9A29D" fill-opacity="0.72"/>
<path d="M5.42641 10.6284C5.42294 12.4137 5.41832 14.199 5.41485 15.9842C3.83902 15.9888 2.26318 16.0002 0.687349 15.9968C0.132803 15.9956 0.00225366 15.8676 0.00225366 15.3225C-5.69525e-05 13.7635 0.011496 12.2034 0.0184278 10.6444C1.82301 10.641 3.6276 10.6364 5.43218 10.633L5.42756 10.6284H5.42641Z" fill="#A9A29D"/>
<path d="M0.00458081 5.37605C0.0034255 3.85252 -0.00350626 2.32785 0.00227026 0.804323C0.00458086 0.12885 0.13282 0.00198508 0.817915 0.000842144C2.35793 -0.00258665 3.89796 0.00541359 5.43798 0.00769946C5.43567 1.51751 5.43798 3.02847 5.42411 4.53828C5.4218 4.81601 5.34786 5.0926 5.30627 5.36919C3.53866 5.37148 1.77104 5.37376 0.00342559 5.37719L0.00458081 5.37605Z" fill="#A9A29D" fill-opacity="0.56"/>
<path d="M5.30859 5.36716C5.34903 5.09057 5.42297 4.81398 5.42643 4.53624C5.4403 3.02643 5.43799 1.51662 5.4403 0.00566101C7.25066 0.00680394 9.06218 0.00794674 10.8725 0.00908967C10.8679 1.52576 10.8656 3.04358 10.8587 4.56025C10.8552 5.22658 10.8205 5.25972 10.1355 5.26201C8.83227 5.26544 7.52909 5.25743 6.2259 5.26772C5.9625 5.27001 5.69909 5.33515 5.43568 5.37058C5.39409 5.36944 5.35134 5.36715 5.30975 5.36601L5.30859 5.36716Z" fill="#A9A29D" fill-opacity="0.72"/>
<path d="M31.052 14.529C31.0358 14.2695 31.015 14.0844 31.015 13.8992C31.0127 11.0419 31.0139 8.18572 31.015 5.32839C31.015 4.69863 31.015 4.69749 31.6539 4.69406C32.2119 4.69177 32.7699 4.69063 33.3291 4.69406C33.9402 4.69749 33.946 4.69977 33.9449 5.29524C33.9414 7.33309 33.9298 9.37094 33.9275 11.4088C33.9275 12.2854 33.9275 13.1609 33.9518 14.0375C33.9622 14.4124 33.8212 14.5427 33.4469 14.5336C32.6636 14.5141 31.8792 14.5278 31.052 14.5278V14.529Z" fill="#A9A29D"/>
<path d="M5.30791 5.36816C5.3495 5.36931 5.39224 5.37159 5.43383 5.37273C5.43383 7.12599 5.43383 8.87925 5.43268 10.6325C3.62809 10.6359 1.82351 10.6405 0.0189252 10.6439C0.014304 8.88725 0.00968277 7.13171 0.00390625 5.37502C1.77152 5.37274 3.53914 5.37045 5.30675 5.36702L5.30791 5.36816Z" fill="#A9A29D" fill-opacity="0.72"/>
<path d="M16.2879 10.058C16.1885 10.5335 15.8859 10.6512 15.4156 10.6432C13.8987 10.6158 12.3818 10.6341 10.8649 10.6341C10.8637 9.09566 10.8591 7.55728 10.8626 6.01889C10.8638 5.41885 10.9146 5.36971 11.52 5.36742C12.8439 5.3617 14.1691 5.37199 15.4931 5.36056C15.7565 5.35828 16.0187 5.2897 16.2821 5.25198C16.2844 6.85323 16.2867 8.45562 16.2879 10.0569V10.058Z" fill="#A9A29D" fill-opacity="0.72"/>
<path d="M62.707 14.5298V4.70627C63.6128 4.70627 64.4885 4.69941 65.3631 4.71884C65.4428 4.72113 65.5479 4.88114 65.5895 4.98743C65.6288 5.08686 65.6034 5.21259 65.6034 5.32688C65.6034 8.18307 65.6034 11.0404 65.6034 13.8966C65.6034 14.5252 65.6022 14.5275 64.9622 14.5298C64.2332 14.5321 63.5053 14.5298 62.707 14.5298Z" fill="#A9A29D"/>
<path d="M78.0946 11.7959C79.0874 11.7959 79.5837 12.2813 79.5837 13.252C79.5837 14.1038 79.1436 14.5298 78.2632 14.5298C77.86 14.5298 77.4557 14.5161 77.0525 14.5332C76.7117 14.5481 76.5615 14.4281 76.5707 14.0749C76.588 13.4669 76.5869 12.8577 76.5707 12.2485C76.5615 11.8942 76.7186 11.7765 77.0559 11.7913C77.4014 11.8073 77.748 11.7947 78.0946 11.7947V11.7959Z" fill="#A9A29D"/>
<path d="M32.4984 3.74746C31.0092 3.7486 31.0023 3.7486 31.0115 2.30279C31.0196 0.97356 30.844 1.17815 32.1715 1.15986C32.6128 1.15414 33.0541 1.16786 33.4943 1.15643C33.8016 1.14843 33.9587 1.25243 33.9518 1.58046C33.9402 2.16792 33.9425 2.75653 33.9506 3.344C33.9541 3.63545 33.8235 3.7566 33.5336 3.74974C33.1893 3.7406 32.8438 3.74746 32.4984 3.74746Z" fill="#A9A29D"/>
<path d="M64.0905 3.74865C63.1408 3.74865 62.666 3.28234 62.666 2.34971C62.666 1.55575 63.0758 1.15877 63.8953 1.15877C64.3169 1.15877 64.7386 1.16906 65.1603 1.15648C65.4746 1.14734 65.6155 1.26849 65.6086 1.58851C65.597 2.15769 65.5936 2.72687 65.6097 3.29491C65.6201 3.64922 65.4595 3.7658 65.1245 3.75094C64.7802 3.73608 64.4348 3.74751 64.0894 3.74751L64.0905 3.74865Z" fill="#A9A29D"/>
<path d="M8.10752 10.1724C7.45247 10.1724 6.79741 10.1564 6.14351 10.1781C5.68832 10.193 5.53235 10.001 5.53928 9.56554C5.55661 8.49918 5.55315 7.43168 5.54159 6.36533C5.53697 5.93787 5.71951 5.71957 6.15275 5.71957C7.42358 5.71957 8.69442 5.70128 9.9641 5.731C10.6434 5.747 10.7405 5.88758 10.7428 6.57334C10.7451 7.56426 10.7474 8.55404 10.7416 9.54497C10.7381 10.1256 10.6388 10.2067 10.0704 10.1987C9.41648 10.1896 8.76142 10.1964 8.10752 10.1964C8.10752 10.1884 8.10752 10.1804 8.10752 10.1724Z" fill="#A9A29D"/>
</svg>
